{"title":"Thunai Mudhalvar 700MB x264 AAC","uid":11811600,"size":734018387,"categoryP":"video","categoryS":"movies","magnet":"?xt=urn:btih:4de2af6dca7ca593dc91ab2a60ba8f803eef94bc&amp;dn=Thunai+Mudhalvar+700MB+x264+AAC&amp;tr=udp%3A%2F%2Ftracker.openbittorrent.com%3A80&amp;tr=udp%3A%2F%2Fopen.demonii.com%3A1337&amp;tr=udp%3A%2F%2Ftracker.coppersurfer.tk%3A6969&amp;tr=udp%3A%2F%2Fexodus.desync.com%3A6969","seeders":1,"leechers":0,"uploader":"TeamXDN","files":1,"time":1428834225,"description":"Thunai Mudhalvar 700MB x264 AAC\n\nFormat                                   : MPEG-4\nFormat profile                           : Base Media\nCodec ID                                 : isom\nFile size                                : 700 MiB\nDuration                                 : 2h 29mn\nOverall bit rate mode                    : Variable\nOverall bit rate                         : 654 Kbps\nEncoded date                             : UTC 2015-04-11 13:59:15\nTagged date                              : UTC 2015-04-11 13:59:15\n\nVideo\nID                                       : 1\nFormat                                   : AVC\nFormat/Info                              : Advanced Video Codec\nFormat profile                           : &lt;a class=&quot;__cf_email__&quot; href=&quot;/cdn-cgi/l/email-protection&quot; data-cfemail=&quot;7d35141a153d314f534c&quot;&gt;[email&amp;#160;protected]&lt;/a&gt;&lt;script cf-hash='f9e31' type=&quot;text/javascript&quot;&gt;\n/* &lt;![CDATA[ */!function(){try{var t=&quot;currentScript&quot;in document?document.currentScript:function(){for(var t=document.getElementsByTagName(&quot;script&quot;),e=t.length;e--;)if(t[e].getAttribute(&quot;cf-hash&quot;))return t[e]}();if(t&amp;&amp;t.previousSibling){var e,r,n,i,c=t.previousSibling,a=c.getAttribute(&quot;data-cfemail&quot;);if(a){for(e=&quot;&quot;,r=parseInt(a.substr(0,2),16),n=2;a.length-n;n+=2)i=parseInt(a.substr(n,2),16)^r,e+=String.fromCharCode(i);e=document.createTextNode(e),c.parentNode.replaceChild(e,c)}}}catch(u){}}();/* ]]&gt; */&lt;/script&gt;\nFormat settings, CABAC                   : Yes\nFormat settings, ReFrames                : 4 frames\nCodec ID                                 : avc1\nCodec ID/Info                            : Advanced Video Coding\nDuration                                 : 2h 29mn\nBit rate                                 : 591 Kbps\nMaximum bit rate                         : 2 358 Kbps\nWidth                                    : 640 pixels\nHeight                                   : 272 pixels\nDisplay aspect ratio                     : 2.35:1\nFrame rate mode                          : Constant\nFrame rate                               : 25.000 fps\nColor space                              : YUV\nChroma subsampling                       : 4:2:0\nBit depth                                : 8 bits\nScan type                                : Progressive\nBits/(Pixel*Frame)                       : 0.136\nStream size                              : 632 MiB (90%)\nWriting library                          : x264 core 146 r2538 121396c\nEncoded date                             : UTC 2015-04-11 13:59:15\nTagged date                              : UTC 2015-04-11 13:59:26\n\nAudio\nID                                       : 2\nFormat                                   : AAC\nFormat/Info                              : Advanced Audio Codec\nFormat profile                           : HE-AAC / LC\nCodec ID                                 : 40\nDuration                                 : 2h 29mn\nBit rate mode                            : Variable\nBit rate                                 : 60.0 Kbps\nMaximum bit rate                         : 66.2 Kbps\nChannel(s)                               : 2 channels\nChannel positions                        : Front: L R\nSampling rate                            : 48.0 KHz / 24.0 KHz\nCompression mode                         : Lossy\nStream size                              : 64.2 MiB (9%)\nEncoded date                             : UTC 2015-04-11 12:50:20\nTagged date                              : UTC 2015-04-11 13:59:26","torrent":{"xt":"urn:btih:4de2af6dca7ca593dc91ab2a60ba8f803eef94bc","amp;dn":"Thunai+Mudhalvar+700MB+x264+AAC","amp;tr":["udp%3A%2F%2Ftracker.openbittorrent.com%3A80","udp%3A%2F%2Fopen.demonii.com%3A1337","udp%3A%2F%2Ftracker.coppersurfer.tk%3A6969","udp%3A%2F%2Fexodus.desync.com%3A6969"],"infoHash":"4de2af6dca7ca593dc91ab2a60ba8f803eef94bc","infoHashBuffer":{"type":"Buffer","data":[77,226,175,109,202,124,165,147,220,145,171,42,96,186,143,128,62,239,148,188]},"announce":[],"urlList":[]}}